<svg xmlns="http://www.w3.org/2000/svg" viewBox="0 0 520 520" role="img" aria-label="Slider marker mascot">
  <defs>
    <linearGradient id="body" x1=".1" y1=".05" x2=".9" y2="1">
      <stop offset="0" stop-color="#ffe27a"/>
      <stop offset="1" stop-color="#f45d48"/>
    </linearGradient>
    <filter id="drop" x="-20%" y="-20%" width="140%" height="140%">
      <feDropShadow dx="0" dy="18" stdDeviation="18" flood-color="#13201f" flood-opacity=".16"/>
    </filter>
  </defs>
  <g filter="url(#drop)">
    <path d="M260 58c82 0 149 61 149 137 0 101-149 267-149 267S111 296 111 195C111 119 178 58 260 58z" fill="url(#body)"/>
    <circle cx="260" cy="195" r="78" fill="#fffaf2"/>
    <circle cx="231" cy="188" r="13" fill="#13201f"/>
    <circle cx="292" cy="188" r="13" fill="#13201f"/>
    <path d="M228 228c19 20 47 20 66 0" fill="none" stroke="#13201f" stroke-width="13" stroke-linecap="round"/>
    <path d="M368 122l73-32v76z" fill="#00a7a5"/>
    <path d="M366 123v111" stroke="#13201f" stroke-width="15" stroke-linecap="round"/>
    <path d="M135 366h250" stroke="#13201f" stroke-opacity=".18" stroke-width="28" stroke-linecap="round"/>
    <circle cx="260" cy="366" r="34" fill="#00a7a5"/>
  </g>
</svg>
