<svg xmlns="http://www.w3.org/2000/svg" viewBox="0 0 256 256">
  <defs>
    <radialGradient id="squadGlow" cx="50%" cy="44%" r="58%">
      <stop offset="0" stop-color="#fff6a8"/>
      <stop offset="0.42" stop-color="#53dcff"/>
      <stop offset="1" stop-color="#1a57ff"/>
    </radialGradient>
    <linearGradient id="helmetBlue" x1="0" y1="0" x2="1" y2="1">
      <stop offset="0" stop-color="#8fe8ff"/>
      <stop offset="0.45" stop-color="#1d8fff"/>
      <stop offset="1" stop-color="#1732a8"/>
    </linearGradient>
  </defs>
  <circle cx="128" cy="128" r="112" fill="url(#squadGlow)" opacity="0.94"/>
  <circle cx="128" cy="128" r="102" fill="#15254a" opacity="0.42"/>
  <g transform="translate(0 4)">
    <ellipse cx="86" cy="161" rx="31" ry="18" fill="#0b1430" opacity="0.33"/>
    <ellipse cx="128" cy="169" rx="35" ry="19" fill="#0b1430" opacity="0.33"/>
    <ellipse cx="170" cy="161" rx="31" ry="18" fill="#0b1430" opacity="0.33"/>
    <circle cx="86" cy="112" r="26" fill="#ffd8b0"/>
    <circle cx="128" cy="103" r="29" fill="#ffd8b0"/>
    <circle cx="170" cy="112" r="26" fill="#ffd8b0"/>
    <path d="M57 111c4-23 19-36 37-36 18 1 31 14 35 36-23-8-48-8-72 0Z" fill="url(#helmetBlue)" stroke="#eaf8ff" stroke-width="6" stroke-linejoin="round"/>
    <path d="M93 101h-7v-7h-8v7h-7v8h7v7h8v-7h7Z" fill="#fff8c7"/>
    <path d="M94 149c6-18 18-28 34-28 16 0 29 10 35 28-18 17-51 17-69 0Z" fill="#f1f6ff"/>
    <path d="M88 95c4-27 20-44 40-44 21 0 37 17 41 44-26-10-55-10-81 0Z" fill="url(#helmetBlue)" stroke="#eaf8ff" stroke-width="7" stroke-linejoin="round"/>
    <path d="M138 82h-8V72h-10v10h-9v10h9v10h10V92h8Z" fill="#fff8c7"/>
    <path d="M127 148c7-15 20-24 35-24 15 0 27 9 35 24-17 17-53 17-70 0Z" fill="#dcecff"/>
    <path d="M127 111c4-23 19-36 37-36 18 1 31 14 35 36-23-8-48-8-72 0Z" fill="url(#helmetBlue)" stroke="#eaf8ff" stroke-width="6" stroke-linejoin="round"/>
    <path d="M177 101h-7v-7h-8v7h-7v8h7v7h8v-7h7Z" fill="#fff8c7"/>
    <path d="M54 148c7-15 19-24 34-24 15 0 28 9 35 24-17 17-52 17-69 0Z" fill="#dcecff"/>
  </g>
  <path d="M192 192h-20v-20h-24v20h-20v24h20v20h24v-20h20Z" fill="#ffe260" stroke="#7a3c00" stroke-width="8" stroke-linejoin="round"/>
</svg>
